<?xml version="1.0" standalone="no"?><!DOCTYPE svg PUBLIC "-//W3C//DTD SVG 1.1//EN" "http://www.w3.org/Graphics/SVG/1.1/DTD/svg11.dtd"><svg t="1720545279099" class="icon" viewBox="0 0 1024 1024" version="1.1" xmlns="http://www.w3.org/2000/svg" p-id="6410" xmlns:xlink="http://www.w3.org/1999/xlink" width="200" height="200"><path d="M28.672 327.68c0 36.864 28.672 61.44 65.536 61.44h827.392c36.864 0 65.536-28.672 65.536-61.44V122.88c0-36.864-28.672-61.44-65.536-61.44H90.112C57.344 57.344 28.672 86.016 28.672 122.88v204.8z m565.248-143.36h245.76c20.48 0 40.96 16.384 40.96 40.96 0 20.48-16.384 40.96-40.96 40.96h-245.76c-20.48 0-40.96-16.384-40.96-40.96 4.096-20.48 20.48-40.96 40.96-40.96z m-241.664-12.288c28.672 0 53.248 20.48 53.248 49.152s-24.576 53.248-53.248 53.248c-28.672 0-53.248-24.576-53.248-53.248 4.096-24.576 24.576-49.152 53.248-49.152z m-184.32 0c28.672 0 53.248 20.48 53.248 49.152s-24.576 53.248-53.248 53.248c-28.672 0-53.248-24.576-53.248-53.248 4.096-24.576 24.576-49.152 53.248-49.152zM28.672 536.576v204.8c0 36.864 28.672 61.44 65.536 61.44h434.176c-8.192-32.768-16.384-65.536-16.384-98.304v-151.552c0-28.672 12.288-57.344 32.768-73.728l8.192-8.192H90.112c-32.768 0-61.44 28.672-61.44 65.536z m323.584 49.152c28.672 0 53.248 24.576 53.248 49.152 0 28.672-24.576 53.248-53.248 53.248-28.672 0-53.248-24.576-53.248-53.248 4.096-24.576 24.576-49.152 53.248-49.152z m-184.32 0c28.672 0 53.248 24.576 53.248 49.152 0 28.672-24.576 53.248-53.248 53.248-28.672 0-53.248-24.576-53.248-53.248 4.096-24.576 24.576-49.152 53.248-49.152zM192.512 925.696c0 20.48 16.384 40.96 40.96 40.96h401.408c-28.672-24.576-49.152-49.152-69.632-77.824H233.472c-24.576-4.096-40.96 16.384-40.96 36.864zM995.328 552.96c0-4.096-4.096-12.288-8.192-16.384 0-4.096-8.192-4.096-12.288-4.096-118.784 4.096-159.744-69.632-159.744-69.632-4.096-8.192-12.288-12.288-20.48-12.288s-16.384 4.096-16.384 12.288c0 4.096-45.056 77.824-159.744 69.632-4.096 0-12.288 0-16.384 8.192-4.096 4.096-8.192 8.192-8.192 16.384v151.552c0 118.784 77.824 221.184 192.512 245.76h16.384c114.688-28.672 192.512-131.072 192.512-245.76v-155.648z" p-id="6411" fill="#1296db"></path></svg>