<svg width="16" height="16" xmlns="http://www.w3.org/2000/svg" fill="currentColor" class="bi bi-database-fill-check">
 <g>
  <title>Layer 1</title>
  <path fill="#083734" fill-rule="evenodd" d="m12.5,16a3.5,3.5 0 1 0 0,-7a3.5,3.5 0 0 0 0,7zm1.679,-4.493a0.5,0.5 0 1 0 -0.858,-0.514l-1.17,1.95l-0.547,-0.547a0.5,0.5 0 0 0 -0.708,0.708l0.774,0.773a0.75,0.75 0 0 0 1.174,-0.144l1.335,-2.226z" id="svg_1"/>
  <path fill="#0C372C" d="m8,1c-1.573,0 -3.022,0.289 -4.096,0.777c-1.029,0.468 -1.904,1.216 -1.904,2.223s0.875,1.755 1.904,2.223c1.074,0.488 2.523,0.777 4.096,0.777s3.022,-0.289 4.096,-0.777c1.029,-0.468 1.904,-1.216 1.904,-2.223s-0.875,-1.755 -1.904,-2.223c-1.074,-0.488 -2.523,-0.777 -4.096,-0.777z" id="svg_2"/>
  <path fill="#083734" d="m2,7l0,-0.839c0.457,0.432 1.004,0.751 1.49,0.972c1.232,0.56 2.828,0.867 4.51,0.867s3.278,-0.307 4.51,-0.867c0.486,-0.22 1.033,-0.54 1.49,-0.972l0,0.839c0,0.424 -0.155,0.802 -0.411,1.133a4.51,4.51 0 0 0 -4.815,1.843a12.31,12.31 0 0 1 -0.774,0.024c-1.573,0 -3.022,-0.289 -4.096,-0.777c-1.029,-0.468 -1.904,-1.216 -1.904,-2.223zm6.257,3.998l-0.257,0.002c-1.682,0 -3.278,-0.307 -4.51,-0.867c-0.486,-0.22 -1.033,-0.54 -1.49,-0.972l0,0.839c0,1.007 0.875,1.755 1.904,2.223c1.074,0.488 2.523,0.777 4.096,0.777l0.027,0a4.552,4.552 0 0 1 0.23,-2.002zm-0.002,3l-0.255,0.002c-1.682,0 -3.278,-0.307 -4.51,-0.867c-0.486,-0.22 -1.033,-0.54 -1.49,-0.972l0,0.839c0,1.007 0.875,1.755 1.904,2.223c1.074,0.488 2.523,0.777 4.096,0.777c0.536,0 1.058,-0.034 1.555,-0.097a4.507,4.507 0 0 1 -1.3,-1.905z" id="svg_3"/>
 </g>

</svg>