<svg width="10" height="10" xmlns="http://www.w3.org/2000/svg">
 <g>
  <title>Layer 1</title>
  <g stroke="null" id="svg_1">
   <path stroke="null" fill="#306856" p-id="6411" d="m-0.00428,2.86662c0,0.41147 0.30132,0.68578 0.68874,0.68578l8.69539,0c0.38742,0 0.68874,-0.32003 0.68874,-0.68578l0,-2.28594c0,-0.41147 -0.30132,-0.68578 -0.68874,-0.68578l-8.73842,0c-0.34437,-0.04571 -0.64569,0.27431 -0.64569,0.68578l0,2.28594l-0.00001,0zm5.94041,-1.60016l2.58279,0c0.21524,0 0.43046,0.18287 0.43046,0.4572c0,0.2286 -0.17219,0.4572 -0.43046,0.4572l-2.58279,0c-0.21524,0 -0.43046,-0.18287 -0.43046,-0.4572c0.04305,-0.2286 0.21524,-0.4572 0.43046,-0.4572zm-2.53974,-0.13716c0.30132,0 0.55961,0.2286 0.55961,0.54863s-0.25827,0.59434 -0.55961,0.59434c-0.30132,0 -0.55961,-0.27431 -0.55961,-0.59434c0.04305,-0.27431 0.25827,-0.54863 0.55961,-0.54863zm-1.9371,0c0.30132,0 0.55961,0.2286 0.55961,0.54863s-0.25827,0.59434 -0.55961,0.59434c-0.30132,0 -0.55961,-0.27431 -0.55961,-0.59434c0.04305,-0.27431 0.25827,-0.54863 0.55961,-0.54863zm-1.46358,4.06899l0,2.28594c0,0.41147 0.30132,0.68578 0.68874,0.68578l4.56292,0c-0.08609,-0.36575 -0.17219,-0.73151 -0.17219,-1.09725l0,-1.6916c0,-0.32003 0.12914,-0.64007 0.34437,-0.82294l0.08609,-0.09144l-4.86425,0c-0.34437,0 -0.64569,0.32003 -0.64569,0.73151l0,0zm3.40067,0.54863c0.30132,0 0.55961,0.27431 0.55961,0.54863c0,0.32003 -0.25827,0.59434 -0.55961,0.59434c-0.30132,0 -0.55961,-0.27431 -0.55961,-0.59434c0.04305,-0.27431 0.25827,-0.54863 0.55961,-0.54863zm-1.9371,0c0.30132,0 0.55961,0.27431 0.55961,0.54863c0,0.32003 -0.25827,0.59434 -0.55961,0.59434c-0.30132,0 -0.55961,-0.27431 -0.55961,-0.59434c0.04305,-0.27431 0.25827,-0.54863 0.55961,-0.54863zm0.25827,3.79468c0,0.2286 0.17219,0.4572 0.43046,0.4572l4.21855,0c-0.30132,-0.27431 -0.51656,-0.54863 -0.73179,-0.86867l-3.48677,0c-0.25827,-0.04571 -0.43046,0.18287 -0.43046,0.41147l0.00001,0zm8.4371,-4.16042c0,-0.04571 -0.04305,-0.13716 -0.08609,-0.18287c0,-0.04571 -0.08609,-0.04571 -0.12914,-0.04571c-1.24835,0.04571 -1.67881,-0.77722 -1.67881,-0.77722c-0.04305,-0.09144 -0.12914,-0.13716 -0.21524,-0.13716s-0.17219,0.04571 -0.17219,0.13716c0,0.04571 -0.47351,0.86867 -1.67881,0.77722c-0.04305,0 -0.12914,0 -0.17219,0.09144c-0.04305,0.04571 -0.08609,0.09144 -0.08609,0.18287l0,1.6916c0,1.32585 0.81788,2.46883 2.02318,2.74314l0.17219,0c1.2053,-0.32003 2.02318,-1.46301 2.02318,-2.74314l0,-1.73732l0,0l-0.00001,-0.00001z" id="svg_2"/>
  </g>
 </g>

</svg>